
		<svg xmlns="http://www.w3.org/2000/svg" xmlns:xlink="http://www.w3.org/1999/xlink" version="1.1" width="3344.827586206897" height="3310.3448275862074">
			
			<g transform="scale(17.24137931034483) translate(10, 10)">
				<defs id="SvgjsDefs1122"></defs><g id="SvgjsG1123" featureKey="root" fill="#ffffff"></g><g id="SvgjsG1124" featureKey="container1" fill="#524179" transform="matrix(2.6945559978485107,0,0,2.6945559978485107,20.000019702139404,20.01124649825786)">   <title xmlns="http://www.w3.org/2000/svg">Untitled-1</title>   <path xmlns="http://www.w3.org/2000/svg" d="M23.11,55.78L1.69,43.41A3.39,3.39,0,0,1,0,40.48V15.75a3.39,3.39,0,0,1,1.69-2.94L23.11,0.45a3.39,3.39,0,0,1,3.39,0L47.91,12.82a3.39,3.39,0,0,1,1.69,2.94V40.48a3.39,3.39,0,0,1-1.69,2.94L26.5,55.78A3.39,3.39,0,0,1,23.11,55.78Z"></path> </g><g id="SvgjsG1125" featureKey="symbol1" fill="#f2f2f2" transform="matrix(0.9746286869049072,0,0,0.9746286869049072,37.741027577427495,46.00804411272317)"><path d="M79.3,30.2c6.1,0,11-4.9,11-11c0-6.1-4.9-11-11-11c-6.1,0-11,4.9-11,11c0,2.9,1.2,5.6,3,7.6L57.9,41c-2-1.9-4.7-3.1-7.6-3.1  c-2.9,0-5.6,1.1-7.5,3L29.4,28.6c0.9-1.2,1.4-2.7,1.4-4.3c0-4-3.3-7.3-7.3-7.3c-4,0-7.3,3.3-7.3,7.3c0,4,3.3,7.3,7.3,7.3  c1.9,0,3.6-0.7,4.9-1.9L41.8,42c-1.5,1.9-2.4,4.3-2.4,6.9c0,2.9,1.1,5.5,2.9,7.4L27.5,71.9c-1.9-1.6-4.3-2.5-7-2.5  c-6.1,0-11,4.9-11,11c0,6.1,4.9,11,11,11c6.1,0,11-4.9,11-11c0-2.9-1.1-5.5-2.9-7.4l14.7-15.6c1.9,1.6,4.3,2.5,7,2.5  c0.2,0,0.3,0,0.5,0l1.9,17c-4,0.8-7.1,4.3-7.1,8.6c0,4.9,3.9,8.8,8.8,8.8s8.8-3.9,8.8-8.8c0-4.9-3.9-8.8-8.8-8.8c-0.1,0-0.2,0-0.3,0  l-1.9-17c2.6-0.5,4.9-1.8,6.5-3.8l13.6,9.8c-0.6,1.1-1,2.3-1,3.7c0,4,3.3,7.3,7.3,7.3s7.3-3.3,7.3-7.3c0-4-3.3-7.3-7.3-7.3  c-2.2,0-4.1,1-5.4,2.5l-13.6-9.8c1.1-1.7,1.7-3.7,1.7-5.8c0-2.6-0.9-4.9-2.4-6.8l13.5-14.3C74.3,29.3,76.7,30.2,79.3,30.2z"></path></g><g id="SvgjsG1126" featureKey="text1" fill="#524179" transform="matrix(1.2000000476837158,0,0,1.2000000476837158,174,96)"><path d=""></path></g>
			</g>
		</svg>
	